<mxfile host="app.diagrams.net" modified="2022-09-29T06:43:17.418Z" agent="5.0 (Windows NT 10.0; Win64; x64) AppleWebKit/537.36 (KHTML, like Gecko) Chrome/105.0.0.0 Safari/537.36" etag="RP387Xyn4SkT7WUE_5K4" version="20.3.7" type="github" pages="3">
  <diagram id="CPAZjp1-10kXw3bAh1W2" name="Page-1">
    <mxGraphModel dx="868" dy="482" grid="1" gridSize="10" guides="1" tooltips="1" connect="1" arrows="1" fold="1" page="1" pageScale="1" pageWidth="850" pageHeight="1100" math="0" shadow="0">
      <root>
        <mxCell id="0" />
        <mxCell id="1" parent="0" />
        <mxCell id="M6ekCkmlDmXZvr1kurbB-11" style="edgeStyle=orthogonalEdgeStyle;rounded=0;orthogonalLoop=1;jettySize=auto;html=1;exitX=0.5;exitY=1;exitDx=0;exitDy=0;entryX=0.5;entryY=0;entryDx=0;entryDy=0;fontSize=10;" edge="1" parent="1" source="M6ekCkmlDmXZvr1kurbB-1" target="M6ekCkmlDmXZvr1kurbB-2">
          <mxGeometry relative="1" as="geometry" />
        </mxCell>
        <mxCell id="M6ekCkmlDmXZvr1kurbB-1" value="Start&lt;br&gt;" style="ellipse;whiteSpace=wrap;html=1;" vertex="1" parent="1">
          <mxGeometry x="280" y="40" width="120" height="80" as="geometry" />
        </mxCell>
        <mxCell id="M6ekCkmlDmXZvr1kurbB-9" style="edgeStyle=orthogonalEdgeStyle;rounded=0;orthogonalLoop=1;jettySize=auto;html=1;exitX=0.5;exitY=1;exitDx=0;exitDy=0;entryX=0.5;entryY=0;entryDx=0;entryDy=0;fontSize=10;" edge="1" parent="1" source="M6ekCkmlDmXZvr1kurbB-2" target="M6ekCkmlDmXZvr1kurbB-3">
          <mxGeometry relative="1" as="geometry" />
        </mxCell>
        <mxCell id="M6ekCkmlDmXZvr1kurbB-2" value="&lt;font style=&quot;font-size: 10px;&quot;&gt;Input numbers = n&amp;nbsp;&lt;br&gt;&lt;/font&gt;&lt;br&gt;" style="shape=parallelogram;perimeter=parallelogramPerimeter;whiteSpace=wrap;html=1;fixedSize=1;" vertex="1" parent="1">
          <mxGeometry x="280" y="160" width="120" height="60" as="geometry" />
        </mxCell>
        <mxCell id="M6ekCkmlDmXZvr1kurbB-21" style="edgeStyle=orthogonalEdgeStyle;rounded=0;orthogonalLoop=1;jettySize=auto;html=1;exitX=0.5;exitY=1;exitDx=0;exitDy=0;entryX=0.5;entryY=0;entryDx=0;entryDy=0;fontSize=10;" edge="1" parent="1" source="M6ekCkmlDmXZvr1kurbB-3" target="M6ekCkmlDmXZvr1kurbB-4">
          <mxGeometry relative="1" as="geometry" />
        </mxCell>
        <mxCell id="M6ekCkmlDmXZvr1kurbB-3" value="Calculate sum of the square of n" style="rounded=0;whiteSpace=wrap;html=1;fontSize=10;" vertex="1" parent="1">
          <mxGeometry x="280" y="250" width="120" height="60" as="geometry" />
        </mxCell>
        <mxCell id="M6ekCkmlDmXZvr1kurbB-17" style="edgeStyle=orthogonalEdgeStyle;rounded=0;orthogonalLoop=1;jettySize=auto;html=1;exitX=0.5;exitY=1;exitDx=0;exitDy=0;entryX=0.583;entryY=0.05;entryDx=0;entryDy=0;entryPerimeter=0;fontSize=10;" edge="1" parent="1" source="M6ekCkmlDmXZvr1kurbB-4" target="M6ekCkmlDmXZvr1kurbB-5">
          <mxGeometry relative="1" as="geometry" />
        </mxCell>
        <mxCell id="M6ekCkmlDmXZvr1kurbB-4" value="&lt;br&gt;Output square sum&lt;br&gt;" style="shape=parallelogram;perimeter=parallelogramPerimeter;whiteSpace=wrap;html=1;fixedSize=1;fontSize=10;" vertex="1" parent="1">
          <mxGeometry x="280" y="350" width="120" height="60" as="geometry" />
        </mxCell>
        <mxCell id="M6ekCkmlDmXZvr1kurbB-5" value="End&lt;br&gt;" style="ellipse;whiteSpace=wrap;html=1;fontSize=10;" vertex="1" parent="1">
          <mxGeometry x="270" y="450" width="120" height="80" as="geometry" />
        </mxCell>
        <mxCell id="M6ekCkmlDmXZvr1kurbB-18" value="" style="endArrow=classic;html=1;rounded=0;fontSize=10;" edge="1" parent="1">
          <mxGeometry width="50" height="50" relative="1" as="geometry">
            <mxPoint x="400" y="310" as="sourcePoint" />
            <mxPoint x="450" y="260" as="targetPoint" />
          </mxGeometry>
        </mxCell>
      </root>
    </mxGraphModel>
  </diagram>
  <diagram id="DRxgz4qZ9wwgsTXrQwXh" name="Page-2">
    <mxGraphModel dx="868" dy="482" grid="1" gridSize="10" guides="1" tooltips="1" connect="1" arrows="1" fold="1" page="1" pageScale="1" pageWidth="850" pageHeight="1100" math="0" shadow="0">
      <root>
        <mxCell id="0" />
        <mxCell id="1" parent="0" />
        <mxCell id="tZMQ3eZjuPSniYnX2RGZ-1" style="edgeStyle=orthogonalEdgeStyle;rounded=0;orthogonalLoop=1;jettySize=auto;html=1;exitX=0.5;exitY=1;exitDx=0;exitDy=0;entryX=0.5;entryY=0;entryDx=0;entryDy=0;fontSize=10;" edge="1" parent="1" source="tZMQ3eZjuPSniYnX2RGZ-2" target="tZMQ3eZjuPSniYnX2RGZ-4">
          <mxGeometry relative="1" as="geometry" />
        </mxCell>
        <mxCell id="tZMQ3eZjuPSniYnX2RGZ-2" value="Start&lt;br&gt;" style="ellipse;whiteSpace=wrap;html=1;" vertex="1" parent="1">
          <mxGeometry x="280" y="40" width="120" height="80" as="geometry" />
        </mxCell>
        <mxCell id="tZMQ3eZjuPSniYnX2RGZ-3" style="edgeStyle=orthogonalEdgeStyle;rounded=0;orthogonalLoop=1;jettySize=auto;html=1;exitX=0.5;exitY=1;exitDx=0;exitDy=0;entryX=0.5;entryY=0;entryDx=0;entryDy=0;fontSize=10;" edge="1" parent="1" source="tZMQ3eZjuPSniYnX2RGZ-4" target="tZMQ3eZjuPSniYnX2RGZ-6">
          <mxGeometry relative="1" as="geometry" />
        </mxCell>
        <mxCell id="tZMQ3eZjuPSniYnX2RGZ-4" value="&lt;font style=&quot;font-size: 10px;&quot;&gt;Input numbers = x,y,z&lt;br&gt;&lt;/font&gt;" style="shape=parallelogram;perimeter=parallelogramPerimeter;whiteSpace=wrap;html=1;fixedSize=1;" vertex="1" parent="1">
          <mxGeometry x="280" y="160" width="120" height="60" as="geometry" />
        </mxCell>
        <mxCell id="tZMQ3eZjuPSniYnX2RGZ-5" style="edgeStyle=orthogonalEdgeStyle;rounded=0;orthogonalLoop=1;jettySize=auto;html=1;exitX=0.5;exitY=1;exitDx=0;exitDy=0;entryX=0.5;entryY=0;entryDx=0;entryDy=0;fontSize=10;" edge="1" parent="1" source="tZMQ3eZjuPSniYnX2RGZ-6" target="tZMQ3eZjuPSniYnX2RGZ-8">
          <mxGeometry relative="1" as="geometry" />
        </mxCell>
        <mxCell id="tZMQ3eZjuPSniYnX2RGZ-6" value="&amp;nbsp;SORT x,y and z" style="rounded=0;whiteSpace=wrap;html=1;fontSize=10;" vertex="1" parent="1">
          <mxGeometry x="280" y="250" width="120" height="60" as="geometry" />
        </mxCell>
        <mxCell id="tZMQ3eZjuPSniYnX2RGZ-7" style="edgeStyle=orthogonalEdgeStyle;rounded=0;orthogonalLoop=1;jettySize=auto;html=1;exitX=0.5;exitY=1;exitDx=0;exitDy=0;entryX=0.583;entryY=0.05;entryDx=0;entryDy=0;entryPerimeter=0;fontSize=10;" edge="1" parent="1" source="tZMQ3eZjuPSniYnX2RGZ-8" target="tZMQ3eZjuPSniYnX2RGZ-9">
          <mxGeometry relative="1" as="geometry" />
        </mxCell>
        <mxCell id="tZMQ3eZjuPSniYnX2RGZ-8" value="&lt;br&gt;Output sorted numbers" style="shape=parallelogram;perimeter=parallelogramPerimeter;whiteSpace=wrap;html=1;fixedSize=1;fontSize=10;" vertex="1" parent="1">
          <mxGeometry x="280" y="350" width="120" height="60" as="geometry" />
        </mxCell>
        <mxCell id="tZMQ3eZjuPSniYnX2RGZ-9" value="End&lt;br&gt;" style="ellipse;whiteSpace=wrap;html=1;fontSize=10;" vertex="1" parent="1">
          <mxGeometry x="270" y="450" width="120" height="80" as="geometry" />
        </mxCell>
      </root>
    </mxGraphModel>
  </diagram>
  <diagram id="CxC1frTqejWlmUTVu7Rh" name="Page-3">
    <mxGraphModel dx="868" dy="482" grid="1" gridSize="10" guides="1" tooltips="1" connect="1" arrows="1" fold="1" page="1" pageScale="1" pageWidth="850" pageHeight="1100" math="0" shadow="0">
      <root>
        <mxCell id="0" />
        <mxCell id="1" parent="0" />
        <mxCell id="KBIFqqhexku4P5rUW37K-12" style="edgeStyle=orthogonalEdgeStyle;rounded=0;orthogonalLoop=1;jettySize=auto;html=1;exitX=0.5;exitY=1;exitDx=0;exitDy=0;entryX=0.592;entryY=0;entryDx=0;entryDy=0;entryPerimeter=0;fontSize=10;" edge="1" parent="1" source="KBIFqqhexku4P5rUW37K-1" target="KBIFqqhexku4P5rUW37K-2">
          <mxGeometry relative="1" as="geometry">
            <Array as="points">
              <mxPoint x="351" y="90" />
            </Array>
          </mxGeometry>
        </mxCell>
        <mxCell id="KBIFqqhexku4P5rUW37K-1" value="Start" style="ellipse;whiteSpace=wrap;html=1;fontSize=10;" vertex="1" parent="1">
          <mxGeometry x="290" y="10" width="120" height="80" as="geometry" />
        </mxCell>
        <mxCell id="KBIFqqhexku4P5rUW37K-10" style="edgeStyle=orthogonalEdgeStyle;rounded=0;orthogonalLoop=1;jettySize=auto;html=1;exitX=0.5;exitY=1;exitDx=0;exitDy=0;entryX=0.5;entryY=0;entryDx=0;entryDy=0;fontSize=10;" edge="1" parent="1" source="KBIFqqhexku4P5rUW37K-2" target="KBIFqqhexku4P5rUW37K-3">
          <mxGeometry relative="1" as="geometry" />
        </mxCell>
        <mxCell id="KBIFqqhexku4P5rUW37K-2" value="Input number" style="shape=parallelogram;perimeter=parallelogramPerimeter;whiteSpace=wrap;html=1;fixedSize=1;fontSize=10;" vertex="1" parent="1">
          <mxGeometry x="280" y="150" width="120" height="60" as="geometry" />
        </mxCell>
        <mxCell id="KBIFqqhexku4P5rUW37K-13" value="False&lt;br&gt;" style="edgeStyle=orthogonalEdgeStyle;rounded=0;orthogonalLoop=1;jettySize=auto;html=1;exitX=0.5;exitY=1;exitDx=0;exitDy=0;entryX=0.5;entryY=0;entryDx=0;entryDy=0;fontSize=10;" edge="1" parent="1" source="KBIFqqhexku4P5rUW37K-3" target="KBIFqqhexku4P5rUW37K-4">
          <mxGeometry relative="1" as="geometry" />
        </mxCell>
        <mxCell id="KBIFqqhexku4P5rUW37K-14" value="False" style="edgeStyle=orthogonalEdgeStyle;rounded=0;orthogonalLoop=1;jettySize=auto;html=1;exitX=1;exitY=0.5;exitDx=0;exitDy=0;entryX=0;entryY=0.5;entryDx=0;entryDy=0;fontSize=10;" edge="1" parent="1" source="KBIFqqhexku4P5rUW37K-3" target="KBIFqqhexku4P5rUW37K-7">
          <mxGeometry relative="1" as="geometry" />
        </mxCell>
        <mxCell id="KBIFqqhexku4P5rUW37K-3" value="Check&amp;nbsp;&lt;br&gt;If number &amp;gt;= 0" style="rhombus;whiteSpace=wrap;html=1;fontSize=10;" vertex="1" parent="1">
          <mxGeometry x="300" y="240" width="80" height="80" as="geometry" />
        </mxCell>
        <mxCell id="KBIFqqhexku4P5rUW37K-16" style="edgeStyle=orthogonalEdgeStyle;rounded=0;orthogonalLoop=1;jettySize=auto;html=1;exitX=0;exitY=0.5;exitDx=0;exitDy=0;entryX=0;entryY=0.5;entryDx=0;entryDy=0;fontSize=10;" edge="1" parent="1" source="KBIFqqhexku4P5rUW37K-4" target="KBIFqqhexku4P5rUW37K-1">
          <mxGeometry relative="1" as="geometry" />
        </mxCell>
        <mxCell id="KBIFqqhexku4P5rUW37K-4" value="Add the number to the value &quot;Sum&quot;" style="rounded=1;whiteSpace=wrap;html=1;fontSize=10;" vertex="1" parent="1">
          <mxGeometry x="280" y="360" width="120" height="60" as="geometry" />
        </mxCell>
        <mxCell id="KBIFqqhexku4P5rUW37K-5" value="End" style="ellipse;whiteSpace=wrap;html=1;fontSize=10;" vertex="1" parent="1">
          <mxGeometry x="520" y="340" width="120" height="80" as="geometry" />
        </mxCell>
        <mxCell id="KBIFqqhexku4P5rUW37K-15" value="" style="edgeStyle=orthogonalEdgeStyle;rounded=0;orthogonalLoop=1;jettySize=auto;html=1;fontSize=10;" edge="1" parent="1" source="KBIFqqhexku4P5rUW37K-7" target="KBIFqqhexku4P5rUW37K-5">
          <mxGeometry relative="1" as="geometry" />
        </mxCell>
        <mxCell id="KBIFqqhexku4P5rUW37K-7" value="Output &quot;Sum&quot;" style="shape=parallelogram;perimeter=parallelogramPerimeter;whiteSpace=wrap;html=1;fixedSize=1;fontSize=10;" vertex="1" parent="1">
          <mxGeometry x="520" y="250" width="120" height="60" as="geometry" />
        </mxCell>
      </root>
    </mxGraphModel>
  </diagram>
</mxfile>
